<?xml version="1.0" encoding="UTF-8" standalone="no"?>
<!-- Created with Inkscape (http://www.inkscape.org/) -->

<svg
   id="svg5"
   version="1.1"
   viewBox="0 0 152.68447 73.446198"
   height="73.446198mm"
   width="152.68446mm"
   sodipodi:docname="White Dragon Project (No BG).svg"
   xml:space="preserve"
   inkscape:version="1.2.2 (732a01da63, 2022-12-09)"
   inkscape:export-filename="White Dragon Project (System).svg"
   inkscape:export-xdpi="96"
   inkscape:export-ydpi="96"
   xmlns:inkscape="http://www.inkscape.org/namespaces/inkscape"
   xmlns:sodipodi="http://sodipodi.sourceforge.net/DTD/sodipodi-0.dtd"
   xmlns="http://www.w3.org/2000/svg"
   xmlns:svg="http://www.w3.org/2000/svg"><sodipodi:namedview
     id="namedview7"
     pagecolor="#ffffff"
     bordercolor="#000000"
     borderopacity="0.25"
     inkscape:showpageshadow="2"
     inkscape:pageopacity="0.0"
     inkscape:pagecheckerboard="0"
     inkscape:deskcolor="#d1d1d1"
     inkscape:document-units="mm"
     showgrid="false"
     inkscape:zoom="1.3480463"
     inkscape:cx="387.22706"
     inkscape:cy="265.56951"
     inkscape:window-width="1366"
     inkscape:window-height="715"
     inkscape:window-x="-8"
     inkscape:window-y="-8"
     inkscape:window-maximized="1"
     inkscape:current-layer="layer3" /><defs
     id="defs2" /><g
     inkscape:groupmode="layer"
     id="layer3"
     inkscape:label="Fondo"
     transform="translate(-28.657765,-13.323364)"><path
       style="fill:#ffffff;fill-opacity:1;stroke:none;stroke-width:0.117564;stroke-opacity:1"
       d="m 58.917418,86.390543 c -3.644583,-0.75026 -6.283522,-1.63871 -9.033156,-3.04117 -1.318595,-0.67256 -1.646626,-0.79806 -1.732244,-0.66279 -0.05804,0.0919 -0.242996,0.57636 -0.410594,1.07682 -0.167737,0.50044 -0.350553,0.93805 -0.406262,0.97249 -0.174124,0.10775 -2.096099,-1.59878 -3.994969,-3.54697 -1.894815,-1.94402 -3.111629,-3.47779 -4.243325,-5.34869 -0.365522,-0.60424 -0.710937,-1.08949 -0.767646,-1.07832 -0.141354,0.0278 -0.21828,0.18218 -0.660033,1.32329 -0.21106,0.54497 -0.445225,1.01083 -0.520623,1.03519 -0.201895,0.0653 -1.815584,-2.42261 -2.496363,-3.84834 -1.140721,-2.38906 -2.026838,-5.53104 -2.445236,-8.67036 -0.114139,-0.85673 -0.261325,-1.55687 -0.327226,-1.55587 -0.06582,0.001 -0.489935,0.68861 -0.942547,1.52802 -0.452612,0.83941 -0.875564,1.50877 -0.939882,1.4875 -0.346221,-0.11442 -0.791501,-3.69282 -0.79239,-6.36792 -0.0011,-2.9983 0.33764,-5.2583 1.212926,-8.09486 0.196619,-0.63723 0.323033,-1.19271 0.280876,-1.23442 -0.04221,-0.0417 -0.49649,0.14969 -1.009642,0.42537 -1.074377,0.57714 -1.159023,0.53404 -0.923386,-0.47044 0.67578,-2.88088 3.180807,-7.13404 6.72097,-11.41119 0.310508,-0.37513 0.564557,-0.73904 0.564557,-0.80866 0,-0.088 -0.42959,-0.10081 -1.410767,-0.0422 -0.864483,0.0516 -1.410766,0.0414 -1.410766,-0.0278 0,-0.14663 1.032053,-1.11042 2.057358,-1.92114 1.945942,-1.53865 4.44486,-3.09669 7.524108,-4.69113 1.034553,-0.53571 1.881013,-1.02592 1.881013,-1.08935 0,-0.0633 -0.43656,-0.35144 -0.970124,-0.64004 -0.55156,-0.29829 -0.937605,-0.57733 -0.894726,-0.6467 0.130801,-0.21162 1.962381,-1.01381 3.410556,-1.49366 3.064946,-1.01556 6.199347,-1.51394 10.827912,-1.72164 1.235059,-0.0555 1.79284,-0.12275 1.79284,-0.21689 0,-0.075 -0.26438,-0.39685 -0.587829,-0.7153 -0.323282,-0.31845 -0.587801,-0.64176 -0.587801,-0.71852 0,-0.20439 2.572483,-0.32714 5.114029,-0.2441 2.782654,0.0908 4.914023,0.41548 9.492377,1.44539 0.500628,0.11275 0.947074,0.16802 0.992091,0.12303 0.04499,-0.045 -0.03638,-0.32514 -0.180789,-0.62252 -0.144409,-0.29737 -0.232999,-0.57027 -0.196897,-0.60646 0.21467,-0.21467 4.522424,0.98365 6.899844,1.91948 1.700862,0.66953 4.072061,1.84363 5.538342,2.74233 0.437587,0.26827 0.854402,0.48766 0.926246,0.48766 0.113861,0 0.09331,-0.52321 -0.05332,-1.34276 -0.06026,-0.33789 0.594965,0.0597 3.070472,1.86316 10.223893,7.44801 15.012298,12.24837 23.873308,23.9329 2.35743,3.10861 8.40209,8.5375 12.24112,10.99415 3.08725,1.97555 7.07505,3.55683 10.58075,4.19562 2.01387,0.36694 5.59225,0.36166 7.70043,-0.0111 3.0209,-0.53454 5.52623,-1.39633 7.86486,-2.70537 3.71378,-2.07877 6.14997,-3.83815 8.30589,-5.99837 3.92984,-3.93773 5.15388,-7.90104 3.75014,-12.14259 -0.75149,-2.27061 -2.3514,-4.7587 -4.50727,-7.00937 -0.91652,-0.95685 -2.58939,-1.72916 -4.79805,-2.21507 -1.39938,-0.3079 -5.63359,-0.31218 -6.50855,-0.006 -1.40654,0.49121 -1.95866,1.65207 -2.69564,5.66786 -0.1658,0.90398 -0.3425,1.68445 -0.39249,1.73444 -0.05,0.05 -0.5642,-0.0697 -1.14269,-0.26605 -0.5785,-0.19634 -1.71311,-0.49276 -2.52139,-0.65872 -1.32912,-0.27299 -1.64929,-0.29596 -3.35057,-0.24133 -2.49031,0.08 -4.46777,0.53795 -9.24994,2.14208 l -2.22151,0.74518 -1.2593,-0.2829 c -2.62033,-0.58858 -4.23811,-0.80275 -6.07946,-0.80477 -1.91612,-0.002 -2.42216,0.10941 -3.2055,0.70696 -0.21994,0.16774 -0.44269,0.25938 -0.49479,0.20356 -0.16163,-0.17384 -1.2785,-3.59948 -1.58192,-4.85253 -0.39207,-1.61922 -0.47205,-2.60417 -0.3102,-3.82035 0.24077,-1.80936 0.24383,-1.81375 1.53645,-2.24712 3.14035,-1.05285 6.26631,-2.48914 8.16068,-3.74961 1.31332,-0.87387 2.84217,-2.33282 4.0805,-3.89399 0.97762,-1.23248 0.98623,-1.23962 2.51119,-2.0773 2.99919,-1.64749 5.42574,-3.20539 6.59773,-4.23591 0.31656,-0.27835 0.87453,-0.73224 1.23994,-1.00862 1.97774,-1.49588 4.15188,-4.29056 5.86043,-7.53313 0.35564,-0.67492 0.6995,-1.20515 0.76415,-1.17827 0.15524,0.0644 0.11719,2.88813 -0.0567,4.20925 -0.37219,2.82937 -1.29146,5.14064 -2.71698,6.83122 -0.27354,0.32437 -0.46719,0.61982 -0.43042,0.65659 0.0367,0.0367 1.43401,-0.0194 3.10499,-0.12747 4.12072,-0.26354 11.23412,-0.36721 12.97797,-0.18939 2.9001,0.29592 5.11095,0.81719 7.52941,1.77526 1.63902,0.64928 3.75106,1.6584 3.75106,1.79223 0,0.0594 -0.31742,0.24494 -0.70538,0.41234 -0.38796,0.16746 -0.70539,0.3445 -0.70539,0.39357 0,0.0491 0.71711,0.46158 1.59359,0.91672 2.85347,1.48175 4.94037,2.99141 6.62649,4.79358 1.07632,1.15039 2.07313,2.54363 1.95574,2.73356 -0.0436,0.0705 -0.31103,0.1283 -0.59438,0.1283 -0.28335,0 -0.54692,0.0514 -0.58574,0.11414 -0.0389,0.0628 0.29351,0.65797 0.73857,1.32259 1.75415,2.61958 3.31277,5.47639 3.94031,7.22226 0.16635,0.46259 0.41454,1.44132 0.55167,2.17492 0.13719,0.73362 0.27807,1.45289 0.31323,1.59839 0.0983,0.40692 -0.15441,0.3243 -0.80936,-0.26438 -0.89325,-0.80314 -0.94446,-0.7363 -0.57047,0.74456 0.69647,2.75764 1.06263,5.71808 1.06391,8.60176 0.001,2.02765 -0.18357,4.57555 -0.343,4.73915 -0.085,0.0872 -0.70294,-0.50707 -1.62758,-1.56484 -0.19773,-0.22633 -0.39707,-0.37393 -0.44283,-0.32817 -0.0458,0.0458 -0.18274,0.62768 -0.30418,1.29313 -0.69986,3.8324 -1.92067,7.54435 -3.35532,10.20198 -0.69611,1.28952 -1.67856,2.82306 -1.80856,2.82306 -0.0894,0 -0.21022,-0.35721 -0.72657,-2.14553 -0.07,-0.24244 -0.17301,-0.44086 -0.22911,-0.44086 -0.0561,0 -0.24605,0.24633 -0.42226,0.54742 -1.42498,2.43463 -3.20097,4.74484 -4.86559,6.32912 -1.55445,1.47942 -3.98555,3.26581 -4.17992,3.07145 -0.0503,-0.0503 0.24327,-1.44935 0.51462,-2.45329 0.0605,-0.22412 -0.29159,-0.29407 -0.49513,-0.0983 -0.2155,0.20717 -3.8871,1.99498 -5.16693,2.51583 -0.71127,0.28945 -1.87515,0.71221 -2.58642,0.93943 -2.34446,0.74899 -5.58428,1.35517 -5.58428,1.04486 0,-0.07 0.18523,-0.44342 0.41148,-0.82958 0.22634,-0.38612 0.41146,-0.75928 0.41146,-0.82924 0,-0.17329 -0.2155,-0.16246 -2.02153,0.10164 -4.8148,0.70455 -9.47105,0.98576 -11.98,0.72352 -1.64229,-0.17162 -1.98715,-0.23577 -1.98715,-0.3701 0,-0.0575 0.29098,-0.32409 0.64659,-0.59261 0.35564,-0.26854 0.64662,-0.53092 0.64662,-0.58316 0,-0.0522 -0.3042,-0.12941 -0.676,-0.17135 -5.87937,-0.66506 -10.2423,-2.3354 -14.84243,-5.68233 -1.65407,-1.20346 -3.73773,-2.94709 -5.20443,-4.35511 -0.66156,-0.63506 -1.62004,-1.54598 -2.13,-2.02425 -1.71711,-1.61044 -4.85704,-5.52954 -10.86924,-13.56647 -1.838076,-2.45709 -3.586261,-4.79144 -3.884882,-5.18742 -0.798333,-1.05872 -3.39045,-3.8614 -4.571106,-4.94241 -4.039986,-3.69904 -8.977864,-6.58109 -14.346886,-8.37368 -4.261154,-1.42271 -9.467022,-2.09471 -13.927516,-1.79786 -6.306349,0.41967 -10.929387,2.33282 -14.437448,5.97462 -0.912582,0.94735 -1.717164,2.22415 -2.436016,3.8657 -1.869988,4.27034 -1.903646,8.83409 -0.100253,13.5814 0.915776,2.41052 1.537624,3.4378 3.390311,5.6008 4.00841,4.67972 10.04327,7.761 16.201378,8.27198 1.54254,0.12803 1.757154,0.1147 7.641662,-0.47491 7.421549,-0.74357 7.718559,-0.73318 10.495881,0.36758 2.376337,0.94185 4.222442,2.36061 8.108604,6.23159 1.535681,1.52965 2.792152,2.83955 2.792152,2.9109 0,0.21439 -0.193009,0.15912 -1.984849,-0.56631 -5.679475,-2.2996 -9.745537,-3.22421 -12.944395,-2.9435 -2.033171,0.17829 -3.330159,0.51615 -6.51652,1.69686 -4.193893,1.55404 -6.118284,2.15778 -7.507056,2.3552 -2.073355,0.29476 -5.434479,0.1919 -8.204358,-0.25105 -0.323255,-0.0517 -0.463276,-0.0314 -0.463276,0.0672 0,0.0778 0.449668,0.71241 0.999284,1.41055 0.549616,0.69816 0.999311,1.32912 0.999311,1.40218 0,0.17774 -0.01666,0.17579 -2.174941,-0.26854 z m 71.274122,-51.49351 c 0.84496,-0.15635 1.64946,-0.34489 1.78782,-0.41893 0.1383,-0.0742 0.93885,-1.16927 1.77887,-2.43385 1.50149,-2.2603 2.17641,-3.41402 2.0633,-3.52713 -0.0314,-0.0314 -0.63024,0.37996 -1.33051,0.91436 -1.07771,0.82246 -2.85239,2.02797 -4.77958,3.24679 -0.35744,0.22605 -0.5444,0.49029 -0.91114,1.28788 -0.25383,0.55192 -0.46142,1.0511 -0.46142,1.10934 0,0.15163 0.14302,0.13802 1.85266,-0.17857 z"
       id="path16618"
       inkscape:export-filename="..\2024\Diseño Web\White Dragon System\data\img\logo\path16618.svg"
       inkscape:export-xdpi="96"
       inkscape:export-ydpi="96" /></g></svg>
